<svg width="90" height="90" viewBox="0 0 90 90" fill="none" xmlns="http://www.w3.org/2000/svg">
<rect width="90" height="90" fill="#1E1E1E"/>
<path d="M-13531 -5585C-13531 -5586.1 -13530.1 -5587 -13529 -5587H347C348.104 -5587 349 -5586.1 349 -5585V2383C349 2384.1 348.104 2385 347 2385H-13529C-13530.1 2385 -13531 2384.1 -13531 2383V-5585Z" fill="#404040"/>
<g clip-path="url(#clip0_0_1)">
<rect width="1440" height="1024" transform="translate(-1310 -898)" fill="#0F0F0F"/>
<circle cx="45" cy="45" r="45" fill="#2A2A2A"/>
<path d="M46.7678 20.2322C45.7915 19.2559 44.2085 19.2559 43.2322 20.2322L27.3223 36.1421C26.346 37.1184 26.346 38.7014 27.3223 39.6777C28.2986 40.654 29.8816 40.654 30.8579 39.6777L45 25.5355L59.1421 39.6777C60.1184 40.654 61.7014 40.654 62.6777 39.6777C63.654 38.7014 63.654 37.1184 62.6777 36.1421L46.7678 20.2322ZM47.5 68L47.5 22L42.5 22L42.5 68L47.5 68Z" fill="#D9D9D9"/>
</g>
<path d="M-13529 -5586H347V-5588H-13529V-5586ZM348 -5585V2383H350V-5585H348ZM347 2384H-13529V2386H347V2384ZM-13530 2383V-5585H-13532V2383H-13530ZM-13529 2384C-13529.6 2384 -13530 2383.55 -13530 2383H-13532C-13532 2384.66 -13530.7 2386 -13529 2386V2384ZM348 2383C348 2383.55 347.553 2384 347 2384V2386C348.657 2386 350 2384.66 350 2383H348ZM347 -5586C347.553 -5586 348 -5585.55 348 -5585H350C350 -5586.66 348.657 -5588 347 -5588V-5586ZM-13529 -5588C-13530.7 -5588 -13532 -5586.66 -13532 -5585H-13530C-13530 -5585.55 -13529.6 -5586 -13529 -5586V-5588Z" fill="white" fill-opacity="0.1"/>
<defs>
<clipPath id="clip0_0_1">
<rect width="1440" height="1024" fill="white" transform="translate(-1310 -898)"/>
</clipPath>
</defs>
</svg>
